<?xml version="1.0" encoding="UTF-8"?>
<svg id="Layer_1" data-name="Layer 1" xmlns="http://www.w3.org/2000/svg" xmlns:xlink="http://www.w3.org/1999/xlink" viewBox="0 0 1080 1080">
  <defs>
    <style>
      .cls-1 {
        fill: #eee;
      }

      .cls-2 {
        fill: none;
      }

      .cls-3 {
        fill: #dc5451;
      }

      .cls-4 {
        fill: #16192d;
      }

      .cls-5 {
        fill: url(#New_Pattern_2);
      }
    </style>
    <pattern id="New_Pattern_2" data-name="New Pattern 2" x="0" y="0" width="212.01" height="216" patternTransform="translate(-6712.98 1414.12)" patternUnits="userSpaceOnUse" viewBox="0 0 212.01 216">
      <g>
        <rect class="cls-2" width="212.01" height="216"/>
        <g>
          <path class="cls-1" d="M79.75,194.07c-.13,0-.26,0-.4,0,.56,2.28,2.62,3.98,5.07,3.98,1.32,0,2.59-.5,3.56-1.4.5-.47,1.28-.44,1.75.06s.44,1.28-.06,1.75c-1.43,1.33-3.29,2.07-5.25,2.07-3.83,0-7.01-2.81-7.59-6.48-1.26.08-2.14.46-2.85,1.67-.33.56-.71,1.44-.93,3.68-.27,2.58-.3,6.4-.3,7.43v.27c0,.68-.55,1.24-1.23,1.24h0c-.68,0-1.23-.55-1.24-1.23v-16.35c-.38,1.73-.82,3.28-1.32,4.51-2.64,6.48-10.38,5.77-14.11,4.5-.57-.2-.92-.79-.82-1.38.11-.6.62-1.02,1.22-1.02h.03s3.7.04,5.6-1.82c.74-.73,1.1-1.65,1.1-2.83,0-1.63-.45-2.81-1.39-3.6-2.01-1.69-5.6-1.08-5.64-1.08-.62.11-1.23-.27-1.41-.88l-1.91-6.64-3.69,34.39c-.06.62-.59,1.09-1.21,1.1h-.02c-.62,0-1.14-.45-1.23-1.07l-6.32-45.76-8.89,30.64c-.15.53-.64.89-1.19.89h-.03c-.56-.01-1.04-.4-1.17-.95l-2.78-11.47-3.06,5.19c-.22.38-.63.61-1.07.61H0v-2.47h20.28l4.25-7.21c.26-.43.75-.67,1.25-.6s.9.44,1.02.93l2.4,9.91,9.21-31.75c.17-.56.7-.93,1.28-.89.58.05,1.06.49,1.14,1.07l5.73,41.53,3.29-30.63c.06-.59.54-1.05,1.13-1.1.59-.05,1.13.32,1.29.89l3.37,11.71c1.57-.1,4.47,0,6.53,1.73,1.52,1.27,2.29,3.12,2.29,5.5,0,1.85-.62,3.39-1.85,4.59-.28.28-.58.52-.9.74,2-.3,3.97-1.28,4.97-3.71,2.78-6.83,3.61-25.57,3.61-25.75.03-.67.59-1.21,1.26-1.19.67.01,1.21.56,1.21,1.24v24.64c1.21-1.26,2.68-1.62,4.09-1.69.6-3.64,3.77-6.42,7.58-6.42s6.99,2.8,7.59,6.45h13.99v2.48h-26.25ZM79.36,191.59c.13,0,.26,0,.39,0h9.74c-.55-2.28-2.61-3.98-5.06-3.98s-4.51,1.69-5.06,3.97Z"/>
          <path class="cls-3" d="M185.76,194.07c-.13,0-.26,0-.4,0,.56,2.28,2.62,3.98,5.07,3.98,1.32,0,2.59-.5,3.56-1.4.5-.47,1.28-.44,1.75.06s.44,1.28-.06,1.75c-1.43,1.33-3.29,2.07-5.25,2.07-3.83,0-7.01-2.81-7.59-6.48-1.26.08-2.14.46-2.85,1.67-.33.56-.71,1.44-.93,3.68-.27,2.58-.3,6.4-.3,7.43v.27c0,.68-.55,1.24-1.23,1.24h0c-.68,0-1.23-.55-1.24-1.23v-16.35c-.38,1.73-.82,3.28-1.32,4.51-2.64,6.48-10.38,5.77-14.11,4.5-.57-.2-.92-.79-.82-1.38.11-.6.62-1.02,1.22-1.02h.03s3.7.04,5.6-1.82c.74-.73,1.1-1.65,1.1-2.83,0-1.63-.45-2.81-1.39-3.6-2.01-1.69-5.6-1.08-5.64-1.08-.62.11-1.23-.27-1.41-.88l-1.91-6.64-3.69,34.39c-.06.62-.59,1.09-1.21,1.1h-.02c-.62,0-1.14-.45-1.23-1.07l-6.32-45.76-8.89,30.64c-.15.53-.64.89-1.19.89h-.03c-.56-.01-1.04-.4-1.17-.95l-2.78-11.47-3.06,5.19c-.22.38-.63.61-1.07.61h-20.98v-2.47h20.28l4.25-7.21c.26-.43.75-.67,1.25-.6s.9.44,1.02.93l2.4,9.91,9.21-31.75c.17-.56.7-.93,1.28-.89.58.05,1.06.49,1.14,1.07l5.73,41.53,3.29-30.63c.06-.59.54-1.05,1.13-1.1.59-.05,1.13.32,1.29.89l3.37,11.71c1.57-.1,4.47,0,6.53,1.73,1.52,1.27,2.29,3.12,2.29,5.5,0,1.85-.62,3.39-1.85,4.59-.28.28-.58.52-.9.74,2-.3,3.97-1.28,4.97-3.71,2.78-6.83,3.61-25.57,3.61-25.75.03-.67.59-1.21,1.26-1.19.67.01,1.21.56,1.21,1.24v24.64c1.21-1.26,2.68-1.62,4.09-1.69.6-3.64,3.77-6.42,7.58-6.42s6.99,2.8,7.59,6.45h13.99v2.48h-26.25ZM185.36,191.59c.13,0,.26,0,.39,0h9.74c-.55-2.28-2.61-3.98-5.06-3.98s-4.51,1.69-5.06,3.97Z"/>
        </g>
        <g>
          <path class="cls-1" d="M79.75,86.07c-.13,0-.26,0-.4,0,.56,2.28,2.62,3.98,5.07,3.98,1.32,0,2.59-.5,3.56-1.4.5-.47,1.28-.44,1.75.06s.44,1.28-.06,1.75c-1.43,1.33-3.29,2.07-5.25,2.07-3.83,0-7.01-2.81-7.59-6.48-1.26.08-2.14.46-2.85,1.67-.33.56-.71,1.44-.93,3.68-.27,2.58-.3,6.4-.3,7.43v.27c0,.68-.55,1.24-1.23,1.24h0c-.68,0-1.23-.55-1.24-1.23v-16.35c-.38,1.73-.82,3.28-1.32,4.51-2.64,6.48-10.38,5.77-14.11,4.5-.57-.2-.92-.79-.82-1.38.11-.6.62-1.02,1.22-1.02h.03s3.7.04,5.6-1.82c.74-.73,1.1-1.65,1.1-2.83,0-1.63-.45-2.81-1.39-3.6-2.01-1.69-5.6-1.08-5.64-1.08-.62.11-1.23-.27-1.41-.88l-1.91-6.64-3.69,34.39c-.06.62-.59,1.09-1.21,1.1h-.02c-.62,0-1.14-.45-1.23-1.07l-6.32-45.76-8.89,30.64c-.15.53-.64.89-1.19.89h-.03c-.56-.01-1.04-.4-1.17-.95l-2.78-11.47-3.06,5.19c-.22.38-.63.61-1.07.61H0v-2.47h20.28l4.25-7.21c.26-.43.75-.67,1.25-.6s.9.44,1.02.93l2.4,9.91,9.21-31.75c.17-.56.7-.93,1.28-.89.58.05,1.06.49,1.14,1.07l5.73,41.53,3.29-30.63c.06-.59.54-1.05,1.13-1.1.59-.05,1.13.32,1.29.89l3.37,11.71c1.57-.1,4.47,0,6.53,1.73,1.52,1.27,2.29,3.12,2.29,5.5,0,1.85-.62,3.39-1.85,4.59-.28.28-.58.52-.9.74,2-.3,3.97-1.28,4.97-3.71,2.78-6.83,3.61-25.57,3.61-25.75.03-.67.59-1.21,1.26-1.19.67.01,1.21.56,1.21,1.24v24.64c1.21-1.26,2.68-1.62,4.09-1.69.6-3.64,3.77-6.42,7.58-6.42s6.99,2.8,7.59,6.45h13.99v2.48h-26.25ZM79.36,83.59c.13,0,.26,0,.39,0h9.74c-.55-2.28-2.61-3.98-5.06-3.98s-4.51,1.69-5.06,3.97Z"/>
          <path class="cls-3" d="M185.76,86.07c-.13,0-.26,0-.4,0,.56,2.28,2.62,3.98,5.07,3.98,1.32,0,2.59-.5,3.56-1.4.5-.47,1.28-.44,1.75.06s.44,1.28-.06,1.75c-1.43,1.33-3.29,2.07-5.25,2.07-3.83,0-7.01-2.81-7.59-6.48-1.26.08-2.14.46-2.85,1.67-.33.56-.71,1.44-.93,3.68-.27,2.58-.3,6.4-.3,7.43v.27c0,.68-.55,1.24-1.23,1.24h0c-.68,0-1.23-.55-1.24-1.23v-16.35c-.38,1.73-.82,3.28-1.32,4.51-2.64,6.48-10.38,5.77-14.11,4.5-.57-.2-.92-.79-.82-1.38.11-.6.62-1.02,1.22-1.02h.03s3.7.04,5.6-1.82c.74-.73,1.1-1.65,1.1-2.83,0-1.63-.45-2.81-1.39-3.6-2.01-1.69-5.6-1.08-5.64-1.08-.62.11-1.23-.27-1.41-.88l-1.91-6.64-3.69,34.39c-.06.62-.59,1.09-1.21,1.1h-.02c-.62,0-1.14-.45-1.23-1.07l-6.32-45.76-8.89,30.64c-.15.53-.64.89-1.19.89h-.03c-.56-.01-1.04-.4-1.17-.95l-2.78-11.47-3.06,5.19c-.22.38-.63.61-1.07.61h-20.98v-2.47h20.28l4.25-7.21c.26-.43.75-.67,1.25-.6s.9.44,1.02.93l2.4,9.91,9.21-31.75c.17-.56.7-.93,1.28-.89.58.05,1.06.49,1.14,1.07l5.73,41.53,3.29-30.63c.06-.59.54-1.05,1.13-1.1.59-.05,1.13.32,1.29.89l3.37,11.71c1.57-.1,4.47,0,6.53,1.73,1.52,1.27,2.29,3.12,2.29,5.5,0,1.85-.62,3.39-1.85,4.59-.28.28-.58.52-.9.74,2-.3,3.97-1.28,4.97-3.71,2.78-6.83,3.61-25.57,3.61-25.75.03-.67.59-1.21,1.26-1.19.67.01,1.21.56,1.21,1.24v24.64c1.21-1.26,2.68-1.62,4.09-1.69.6-3.64,3.77-6.42,7.58-6.42s6.99,2.8,7.59,6.45h13.99v2.48h-26.25ZM185.36,83.59c.13,0,.26,0,.39,0h9.74c-.55-2.28-2.61-3.98-5.06-3.98s-4.51,1.69-5.06,3.97Z"/>
          <path class="cls-1" d="M145.89,140.06c-.13,0-.26,0-.4,0,.56,2.28,2.62,3.98,5.07,3.98,1.32,0,2.59-.5,3.56-1.4.5-.47,1.28-.44,1.75.06s.44,1.28-.06,1.75c-1.43,1.33-3.29,2.07-5.25,2.07-3.83,0-7.01-2.81-7.59-6.48-1.26.08-2.14.46-2.85,1.67-.33.56-.71,1.44-.93,3.68-.27,2.58-.3,6.4-.3,7.43v.27c0,.68-.55,1.24-1.23,1.24h0c-.68,0-1.23-.55-1.24-1.23v-16.35c-.38,1.73-.82,3.28-1.32,4.51-2.64,6.48-10.38,5.77-14.11,4.5-.57-.2-.92-.79-.82-1.38.11-.6.62-1.02,1.22-1.02h.03s3.7.04,5.6-1.82c.74-.73,1.1-1.65,1.1-2.83,0-1.63-.45-2.81-1.39-3.6-2.01-1.69-5.6-1.08-5.64-1.08-.62.11-1.23-.27-1.41-.88l-1.91-6.64-3.69,34.39c-.06.62-.59,1.09-1.21,1.1h-.02c-.62,0-1.14-.45-1.23-1.07l-6.32-45.76-8.89,30.64c-.15.53-.64.89-1.19.89h-.03c-.56-.01-1.04-.4-1.17-.95l-2.78-11.47-3.06,5.19c-.22.38-.63.61-1.07.61h-20.98v-2.47h20.28l4.25-7.21c.26-.43.75-.67,1.25-.6s.9.44,1.02.93l2.4,9.91,9.21-31.75c.17-.56.7-.93,1.28-.89.58.05,1.06.49,1.14,1.07l5.73,41.53,3.29-30.63c.06-.59.54-1.05,1.13-1.1.59-.05,1.13.32,1.29.89l3.37,11.71c1.57-.1,4.47,0,6.53,1.73,1.52,1.27,2.29,3.12,2.29,5.5,0,1.85-.62,3.39-1.85,4.59-.28.28-.58.52-.9.74,2-.3,3.97-1.28,4.97-3.71,2.78-6.83,3.61-25.57,3.61-25.75.03-.67.59-1.21,1.26-1.19.67.01,1.21.56,1.21,1.24v24.64c1.21-1.26,2.68-1.62,4.09-1.69.6-3.64,3.77-6.42,7.58-6.42s6.99,2.8,7.59,6.45h13.99v2.48h-26.25ZM145.5,137.59c.13,0,.26,0,.39,0h9.74c-.55-2.28-2.61-3.98-5.06-3.98s-4.51,1.69-5.06,3.97Z"/>
          <path class="cls-3" d="M251.9,140.06c-.13,0-.26,0-.4,0,.56,2.28,2.62,3.98,5.07,3.98,1.32,0,2.59-.5,3.56-1.4.5-.47,1.28-.44,1.75.06s.44,1.28-.06,1.75c-1.43,1.33-3.29,2.07-5.25,2.07-3.83,0-7.01-2.81-7.59-6.48-1.26.08-2.14.46-2.85,1.67-.33.56-.71,1.44-.93,3.68-.27,2.58-.3,6.4-.3,7.43v.27c0,.68-.55,1.24-1.23,1.24h0c-.68,0-1.23-.55-1.24-1.23v-16.35c-.38,1.73-.82,3.28-1.32,4.51-2.64,6.48-10.38,5.77-14.11,4.5-.57-.2-.92-.79-.82-1.38.11-.6.62-1.02,1.22-1.02h.03s3.7.04,5.6-1.82c.74-.73,1.1-1.65,1.1-2.83,0-1.63-.45-2.81-1.39-3.6-2.01-1.69-5.6-1.08-5.64-1.08-.62.11-1.23-.27-1.41-.88l-1.91-6.64-3.69,34.39c-.06.62-.59,1.09-1.21,1.1h-.02c-.62,0-1.14-.45-1.23-1.07l-6.32-45.76-8.89,30.64c-.15.53-.64.89-1.19.89h-.03c-.56-.01-1.04-.4-1.17-.95l-2.78-11.47-3.06,5.19c-.22.38-.63.61-1.07.61h-20.98v-2.47h20.28l4.25-7.21c.26-.43.75-.67,1.25-.6s.9.44,1.02.93l2.4,9.91,9.21-31.75c.17-.56.7-.93,1.28-.89.58.05,1.06.49,1.14,1.07l5.73,41.53,3.29-30.63c.06-.59.54-1.05,1.13-1.1.59-.05,1.13.32,1.29.89l3.37,11.71c1.57-.1,4.47,0,6.53,1.73,1.52,1.27,2.29,3.12,2.29,5.5,0,1.85-.62,3.39-1.85,4.59-.28.28-.58.52-.9.74,2-.3,3.97-1.28,4.97-3.71,2.78-6.83,3.61-25.57,3.61-25.75.03-.67.59-1.21,1.26-1.19.67.01,1.21.56,1.21,1.24v24.64c1.21-1.26,2.68-1.62,4.09-1.69.6-3.64,3.77-6.42,7.58-6.42s6.99,2.8,7.59,6.45h13.99v2.48h-26.25ZM251.5,137.59c.13,0,.26,0,.39,0h9.74c-.55-2.28-2.61-3.98-5.06-3.98s-4.51,1.69-5.06,3.97Z"/>
        </g>
        <path class="cls-3" d="M39.88,140.06c-.13,0-.26,0-.4,0,.56,2.28,2.62,3.98,5.07,3.98,1.32,0,2.59-.5,3.56-1.4.5-.47,1.28-.44,1.75.06s.44,1.28-.06,1.75c-1.43,1.33-3.29,2.07-5.25,2.07-3.83,0-7.01-2.81-7.59-6.48-1.26.08-2.14.46-2.85,1.67-.33.56-.71,1.44-.93,3.68-.27,2.58-.3,6.4-.3,7.43v.27c0,.68-.55,1.24-1.23,1.24h0c-.68,0-1.23-.55-1.24-1.23v-16.35c-.38,1.73-.82,3.28-1.32,4.51-2.64,6.48-10.38,5.77-14.11,4.5-.57-.2-.92-.79-.82-1.38.11-.6.62-1.02,1.22-1.02h.03s3.7.04,5.6-1.82c.74-.73,1.1-1.65,1.1-2.83,0-1.63-.45-2.81-1.39-3.6-2.01-1.69-5.6-1.08-5.64-1.08-.62.11-1.23-.27-1.41-.88l-1.91-6.64-3.69,34.39c-.06.62-.59,1.09-1.21,1.1h-.02c-.62,0-1.14-.45-1.23-1.07L-.7,115.16l-8.89,30.64c-.15.53-.64.89-1.19.89h-.03c-.56-.01-1.04-.4-1.17-.95l-2.78-11.47-3.06,5.19c-.22.38-.63.61-1.07.61h-20.98v-2.47h20.28l4.25-7.21c.26-.43.75-.67,1.25-.6s.9.44,1.02.93l2.4,9.91L-1.46,108.89c.17-.56.7-.93,1.28-.89.58.05,1.06.49,1.14,1.07l5.73,41.53,3.29-30.63c.06-.59.54-1.05,1.13-1.1.59-.05,1.13.32,1.29.89l3.37,11.71c1.57-.1,4.47,0,6.53,1.73,1.52,1.27,2.29,3.12,2.29,5.5,0,1.85-.62,3.39-1.85,4.59-.28.28-.58.52-.9.74,2-.3,3.97-1.28,4.97-3.71,2.78-6.83,3.61-25.57,3.61-25.75.03-.67.59-1.21,1.26-1.19.67.01,1.21.56,1.21,1.24v24.64c1.21-1.26,2.68-1.62,4.09-1.69.6-3.64,3.77-6.42,7.58-6.42s6.99,2.8,7.59,6.45h13.99v2.48h-26.25ZM39.49,137.59c.13,0,.26,0,.39,0h9.74c-.55-2.28-2.61-3.98-5.06-3.98s-4.51,1.69-5.06,3.97Z"/>
        <g>
          <path class="cls-1" d="M145.89,32.06c-.13,0-.26,0-.4,0,.56,2.28,2.62,3.98,5.07,3.98,1.32,0,2.59-.5,3.56-1.4.5-.47,1.28-.44,1.75.06s.44,1.28-.06,1.75c-1.43,1.33-3.29,2.07-5.25,2.07-3.83,0-7.01-2.81-7.59-6.48-1.26.08-2.14.46-2.85,1.67-.33.56-.71,1.44-.93,3.68-.27,2.58-.3,6.4-.3,7.43v.27c0,.68-.55,1.24-1.23,1.24h0c-.68,0-1.23-.55-1.24-1.23v-16.35c-.38,1.73-.82,3.28-1.32,4.51-2.64,6.48-10.38,5.77-14.11,4.5-.57-.2-.92-.79-.82-1.38.11-.6.62-1.02,1.22-1.02h.03s3.7.04,5.6-1.82c.74-.73,1.1-1.65,1.1-2.83,0-1.63-.45-2.81-1.39-3.6-2.01-1.69-5.6-1.08-5.64-1.08-.62.11-1.23-.27-1.41-.88l-1.91-6.64-3.69,34.39c-.06.62-.59,1.09-1.21,1.1h-.02c-.62,0-1.14-.45-1.23-1.07l-6.32-45.76-8.89,30.64c-.15.53-.64.89-1.19.89h-.03c-.56-.01-1.04-.4-1.17-.95l-2.78-11.47-3.06,5.19c-.22.38-.63.61-1.07.61h-20.98v-2.47h20.28l4.25-7.21c.26-.43.75-.67,1.25-.6s.9.44,1.02.93l2.4,9.91L104.55.89c.17-.56.7-.93,1.28-.89.58.05,1.06.49,1.14,1.07l5.73,41.53,3.29-30.63c.06-.59.54-1.05,1.13-1.1.59-.05,1.13.32,1.29.89l3.37,11.71c1.57-.1,4.47,0,6.53,1.73,1.52,1.27,2.29,3.12,2.29,5.5,0,1.85-.62,3.39-1.85,4.59-.28.28-.58.52-.9.74,2-.3,3.97-1.28,4.97-3.71,2.78-6.83,3.61-25.57,3.61-25.75.03-.67.59-1.21,1.26-1.19.67.01,1.21.56,1.21,1.24v24.64c1.21-1.26,2.68-1.62,4.09-1.69.6-3.64,3.77-6.42,7.58-6.42s6.99,2.8,7.59,6.45h13.99v2.48h-26.25ZM145.5,29.59c.13,0,.26,0,.39,0h9.74c-.55-2.28-2.61-3.98-5.06-3.98s-4.51,1.69-5.06,3.97Z"/>
          <path class="cls-3" d="M251.9,32.06c-.13,0-.26,0-.4,0,.56,2.28,2.62,3.98,5.07,3.98,1.32,0,2.59-.5,3.56-1.4.5-.47,1.28-.44,1.75.06s.44,1.28-.06,1.75c-1.43,1.33-3.29,2.07-5.25,2.07-3.83,0-7.01-2.81-7.59-6.48-1.26.08-2.14.46-2.85,1.67-.33.56-.71,1.44-.93,3.68-.27,2.58-.3,6.4-.3,7.43v.27c0,.68-.55,1.24-1.23,1.24h0c-.68,0-1.23-.55-1.24-1.23v-16.35c-.38,1.73-.82,3.28-1.32,4.51-2.64,6.48-10.38,5.77-14.11,4.5-.57-.2-.92-.79-.82-1.38.11-.6.62-1.02,1.22-1.02h.03s3.7.04,5.6-1.82c.74-.73,1.1-1.65,1.1-2.83,0-1.63-.45-2.81-1.39-3.6-2.01-1.69-5.6-1.08-5.64-1.08-.62.11-1.23-.27-1.41-.88l-1.91-6.64-3.69,34.39c-.06.62-.59,1.09-1.21,1.1h-.02c-.62,0-1.14-.45-1.23-1.07l-6.32-45.76-8.89,30.64c-.15.53-.64.89-1.19.89h-.03c-.56-.01-1.04-.4-1.17-.95l-2.78-11.47-3.06,5.19c-.22.38-.63.61-1.07.61h-20.98v-2.47h20.28l4.25-7.21c.26-.43.75-.67,1.25-.6s.9.44,1.02.93l2.4,9.91L210.55.89c.17-.56.7-.93,1.28-.89.58.05,1.06.49,1.14,1.07l5.73,41.53,3.29-30.63c.06-.59.54-1.05,1.13-1.1.59-.05,1.13.32,1.29.89l3.37,11.71c1.57-.1,4.47,0,6.53,1.73,1.52,1.27,2.29,3.12,2.29,5.5,0,1.85-.62,3.39-1.85,4.59-.28.28-.58.52-.9.74,2-.3,3.97-1.28,4.97-3.71,2.78-6.83,3.61-25.57,3.61-25.75.03-.67.59-1.21,1.26-1.19.67.01,1.21.56,1.21,1.24v24.64c1.21-1.26,2.68-1.62,4.09-1.69.6-3.64,3.77-6.42,7.58-6.42s6.99,2.8,7.59,6.45h13.99v2.48h-26.25ZM251.5,29.59c.13,0,.26,0,.39,0h9.74c-.55-2.28-2.61-3.98-5.06-3.98s-4.51,1.69-5.06,3.97Z"/>
        </g>
        <path class="cls-3" d="M39.88,32.06c-.13,0-.26,0-.4,0,.56,2.28,2.62,3.98,5.07,3.98,1.32,0,2.59-.5,3.56-1.4.5-.47,1.28-.44,1.75.06s.44,1.28-.06,1.75c-1.43,1.33-3.29,2.07-5.25,2.07-3.83,0-7.01-2.81-7.59-6.48-1.26.08-2.14.46-2.85,1.67-.33.56-.71,1.44-.93,3.68-.27,2.58-.3,6.4-.3,7.43v.27c0,.68-.55,1.24-1.23,1.24h0c-.68,0-1.23-.55-1.24-1.23v-16.35c-.38,1.73-.82,3.28-1.32,4.51-2.64,6.48-10.38,5.77-14.11,4.5-.57-.2-.92-.79-.82-1.38.11-.6.62-1.02,1.22-1.02h.03s3.7.04,5.6-1.82c.74-.73,1.1-1.65,1.1-2.83,0-1.63-.45-2.81-1.39-3.6-2.01-1.69-5.6-1.08-5.64-1.08-.62.11-1.23-.27-1.41-.88l-1.91-6.64-3.69,34.39c-.06.62-.59,1.09-1.21,1.1h-.02c-.62,0-1.14-.45-1.23-1.07L-.7,7.16l-8.89,30.64c-.15.53-.64.89-1.19.89h-.03c-.56-.01-1.04-.4-1.17-.95l-2.78-11.47-3.06,5.19c-.22.38-.63.61-1.07.61h-20.98v-2.47h20.28l4.25-7.21c.26-.43.75-.67,1.25-.6s.9.44,1.02.93l2.4,9.91L-1.46.89C-1.3.34-.76-.04-.18,0,.4.05.87.49.95,1.07l5.73,41.53,3.29-30.63c.06-.59.54-1.05,1.13-1.1.59-.05,1.13.32,1.29.89l3.37,11.71c1.57-.1,4.47,0,6.53,1.73,1.52,1.27,2.29,3.12,2.29,5.5,0,1.85-.62,3.39-1.85,4.59-.28.28-.58.52-.9.74,2-.3,3.97-1.28,4.97-3.71,2.78-6.83,3.61-25.57,3.61-25.75.03-.67.59-1.21,1.26-1.19.67.01,1.21.56,1.21,1.24v24.64c1.21-1.26,2.68-1.62,4.09-1.69.6-3.64,3.77-6.42,7.58-6.42s6.99,2.8,7.59,6.45h13.99v2.48h-26.25ZM39.49,29.59c.13,0,.26,0,.39,0h9.74c-.55-2.28-2.61-3.98-5.06-3.98s-4.51,1.69-5.06,3.97Z"/>
      </g>
    </pattern>
  </defs>
  <rect class="cls-4" x="-15.76" y="-9.87" width="1111.53" height="1099.75"/>
  <rect class="cls-5" x="-6.83" y="-11.14" width="1093.65" height="1102.27"/>
</svg>