<?xml version="1.0" encoding="UTF-8"?>
<svg id="Layer_1" data-name="Layer 1" xmlns="http://www.w3.org/2000/svg" viewBox="0 0 930.8 611.48">
  <defs>
    <style>
      .cls-1 {
        fill: #cd0b07;
      }
    </style>
  </defs>
  <path class="cls-1" d="M156.69,440.11c-2.47-2.87-5.73-4.93-9.78-6.19-4.05-1.25-9.01-1.88-14.89-1.88s-10.94.11-15.64.32c-4.69.22-9.19.47-13.49.75v74.29c4.3.29,8.81.54,13.54.75,4.73.22,9.92.32,15.58.32s10.84-.63,14.89-1.88c4.05-1.25,7.31-3.32,9.78-6.19,2.47-2.87,4.28-6.76,5.43-11.68,1.15-4.92,1.72-11.07,1.72-18.46s-.57-13.55-1.72-18.46c-1.15-4.92-2.96-8.81-5.43-11.68ZM145.19,485.75c-.9,3.73-2.4,6.34-4.51,7.81-2.11,1.47-5,2.21-8.65,2.21-4.59,0-8.76-.05-12.52-.16-.06,0-.11,0-.16,0v-50.91c.32,0,.64,0,.97,0,3.44-.04,7.34-.05,11.71-.05,3.65,0,6.54.75,8.65,2.26,2.11,1.51,3.62,4.13,4.51,7.86.9,3.73,1.34,8.9,1.34,15.5s-.45,11.77-1.34,15.5Z"/>
  <path class="cls-1" d="M247.29,447.21c.9-.93,2.24-1.4,4.03-1.4h28.48l.75-11.95c-3.44-.36-7.13-.61-11.07-.75-3.94-.14-7.95-.23-12.04-.27-4.08-.04-8.13-.05-12.14-.05-4.73,0-8.54,1.36-11.45,4.09-2.9,2.73-4.35,6.35-4.35,10.87v45c0,4.45,1.45,8.06,4.35,10.82,2.9,2.76,6.72,4.15,11.45,4.15,4.01,0,8.06-.02,12.14-.05,4.08-.04,8.1-.14,12.04-.32,3.94-.18,7.63-.41,11.07-.7l-.75-11.95h-28.48c-1.79,0-3.13-.47-4.03-1.4-.9-.93-1.34-2.3-1.34-4.09v-14.64h29.88v-11.63h-29.88v-11.63c0-1.79.45-3.16,1.34-4.09Z"/>
  <path class="cls-1" d="M367.93,494.15c-1.86,0-3.3-.47-4.3-1.4-1.01-.93-1.51-2.3-1.51-4.09v-55.56h-16.44v59.11c0,4.52,1.38,8.24,4.14,11.14,2.76,2.91,6.82,4.36,12.2,4.36s11.05-.05,16.61-.16c5.55-.11,10.87-.45,15.96-1.02l-.75-12.38h-25.9Z"/>
  <path class="cls-1" d="M496.31,434.29c-1.04-.79-2.24-1.18-3.6-1.18h-15.58c-1.36,0-2.56.4-3.6,1.18-1.04.79-1.74,1.83-2.1,3.12l-21.6,69.98h16.87l5.44-19.6h25.56l5.44,19.6h16.77l-21.5-69.98c-.36-1.29-1.06-2.33-2.1-3.12ZM475.58,475.42l6.28-22.61c.36-1.22.66-2.46.91-3.71.25-1.25.48-2.46.7-3.61h2.9c.22,1.15.47,2.35.75,3.61.29,1.26.57,2.49.86,3.71l6.28,22.61h-18.68Z"/>
  <path class="cls-1" d="M603.2,494.15c-1.86,0-3.3-.47-4.3-1.4-1.01-.93-1.51-2.3-1.51-4.09v-55.56h-16.44v59.11c0,4.52,1.38,8.24,4.14,11.14,2.76,2.91,6.82,4.36,12.2,4.36s11.05-.05,16.61-.16c5.55-.11,10.87-.45,15.96-1.02l-.75-12.38h-25.9Z"/>
  <rect class="cls-1" x="692.61" y="433.11" width="16.34" height="74.29"/>
  <path class="cls-1" d="M794.87,447.21c.9-.93,2.24-1.4,4.03-1.4h28.48l.75-11.95c-3.44-.36-7.13-.61-11.07-.75-3.94-.14-7.95-.23-12.04-.27-4.08-.04-8.13-.05-12.14-.05-4.73,0-8.54,1.36-11.45,4.09-2.9,2.73-4.35,6.35-4.35,10.87v45c0,4.45,1.45,8.06,4.35,10.82,2.9,2.76,6.72,4.15,11.45,4.15,4.01,0,8.06-.02,12.14-.05,4.08-.04,8.1-.14,12.04-.32,3.94-.18,7.63-.41,11.07-.7l-.75-11.95h-28.48c-1.79,0-3.13-.47-4.03-1.4-.9-.93-1.34-2.3-1.34-4.09v-14.64h29.88v-11.63h-29.88v-11.63c0-1.79.45-3.16,1.34-4.09Z"/>
  <path class="cls-1" d="M820.32,317.44c4.57,0,8.28-3.71,8.28-8.28s-3.71-8.28-8.28-8.28h-94c-3.97-24.45-25.22-43.17-50.77-43.17s-46.67,18.61-50.74,42.95c-9.46.49-19.27,2.83-27.39,11.29v-164.85c0-4.5-3.6-8.18-8.1-8.28-4.56-.1-8.26,3.43-8.44,7.93-.05,1.26-5.54,126.63-24.16,172.32-6.64,16.27-19.82,22.81-33.23,24.81,2.12-1.46,4.14-3.11,6.02-4.95,8.2-8.04,12.36-18.39,12.36-30.76,0-15.93-5.14-28.3-15.28-36.78-13.81-11.54-33.19-12.23-43.72-11.59l-22.54-78.32c-1.09-3.8-4.71-6.3-8.67-5.96-3.94.34-7.09,3.43-7.51,7.36l-21.99,204.98-38.34-277.84c-.53-3.87-3.7-6.84-7.6-7.12-3.9-.28-7.46,2.2-8.55,5.95l-61.66,212.44-16.05-66.32c-.79-3.28-3.49-5.74-6.83-6.24-3.34-.5-6.64,1.08-8.35,3.98l-28.43,48.23H110.49c-4.57,0-8.28,3.71-8.28,8.28s3.71,8.28,8.28,8.28h140.59c2.93,0,5.64-1.55,7.13-4.07l20.46-34.71,18.57,76.71c.88,3.65,4.11,6.24,7.86,6.33,3.8.09,7.09-2.37,8.13-5.97l59.5-205,42.25,306.2c.57,4.1,4.07,7.15,8.2,7.15.04,0,.08,0,.13,0,4.18-.06,7.66-3.24,8.1-7.39l24.69-230.12,12.79,44.42c1.17,4.06,5.22,6.59,9.4,5.86.24-.04,24.28-4.09,37.72,7.2,6.26,5.26,9.3,13.13,9.3,24.05,0,7.84-2.41,14.03-7.36,18.9-12.66,12.46-37.24,12.22-37.45,12.23-.06,0-.11,0-.16,0-4.01,0-7.45,2.88-8.15,6.84-.71,4.01,1.61,7.95,5.46,9.27,24.92,8.55,76.72,13.27,94.39-30.09,3.34-8.18,6.27-18.55,8.83-30.14v106.81c0,1.47,0,2.38,0,2.58.02,4.56,3.72,8.25,8.28,8.25h.02c4.56,0,8.26-3.71,8.26-8.28v-1.79c.01-6.88.19-32.43,1.96-49.69,1.54-14.96,4.02-20.84,6.25-24.61,4.79-8.12,10.67-10.6,19.1-11.17,3.9,24.53,25.19,43.35,50.81,43.35,13.08,0,25.55-4.92,35.11-13.84,3.34-3.12,3.52-8.36.4-11.7-3.12-3.34-8.36-3.52-11.7-.4-6.48,6.05-14.94,9.39-23.82,9.39-16.4,0-30.19-11.38-33.91-26.66.87.02,1.75.04,2.63.04h176.04ZM675.55,274.27c16.39,0,30.17,11.36,33.9,26.62h-65.17c-.87,0-1.74-.02-2.61-.04,3.74-15.24,17.51-26.58,33.89-26.58Z"/>
</svg>