<?xml version="1.0" encoding="UTF-8"?>
<svg id="Layer_1" data-name="Layer 1" xmlns="http://www.w3.org/2000/svg" viewBox="0 0 803.57 636.49">
  <defs>
    <style>
      .cls-1 {
        stroke-dasharray: 1.98 4.98;
      }

      .cls-1, .cls-2 {
        fill: none;
        stroke: #bdbfbf;
        stroke-linecap: round;
      }

      .cls-2 {
        stroke-dasharray: 2.16 5.16;
      }

      .cls-3 {
        fill: #16192d;
      }
    </style>
  </defs>
  <line class="cls-1" x1="803.57" y1="636.49" y2="636.49"/>
  <line class="cls-2" x1="2.62" y1="134.68" x2="68.4" y2="134.68"/>
  <g>
    <path class="cls-3" d="M646.47,330.25l-83.12-.6c8.05-10.87,12.82-24.31,12.82-38.85v-20.18c0-36.09-29.4-65.45-65.55-65.45l-36.56.05c-6.89,0-12.67,5.21-13.4,12.05l-13.45,125.51c-.79,7.41,4.57,14.06,11.98,14.85.49.05.98.08,1.46.08,6.81,0,12.66-5.14,13.4-12.06l12.16-113.47,24.44-.03c21.26,0,38.55,17.26,38.55,38.47v20.18c0,21.21-17.29,38.47-38.55,38.47-7.43,0-13.47,6.01-13.49,13.44-.03,7.43,5.96,13.49,13.39,13.54l135.74.98c7.55.05,13.53-5.94,13.59-13.4.05-7.45-5.94-13.54-13.39-13.59Z"/>
    <path class="cls-3" d="M394.32,145.02c-.87-6.31-6.03-11.15-12.39-11.61-6.42-.48-12.17,3.58-13.94,9.7l-55.8,192.25-11.31-46.72c-1.29-5.34-5.69-9.36-11.13-10.17-5.45-.81-10.82,1.76-13.61,6.49l-26.74,45.37h-99.59c-7.45,0-13.49,6.04-13.49,13.49s6.04,13.49,13.49,13.49h107.29c4.78,0,9.2-2.53,11.62-6.64l13.75-23.33,15.41,63.66c1.44,5.94,6.7,10.18,12.81,10.31,6.06.17,11.56-3.85,13.26-9.73l52.27-180.11,38.64,280c.93,6.76,6.71,11.65,13.35,11.65.61,0,1.24-.04,1.86-.13,7.38-1.02,12.54-7.83,11.52-15.21l-47.3-342.77Z"/>
    <circle class="cls-3" cx="366.05" cy="343.33" r="13.59"/>
  </g>
</svg>